# xmcd
#
# Track frame offsets: 
#        150
#        16985
#        30230
#        49612
#        71312
#        85472
#        99765
#        113255
#        132197
#        147660
#        161345
#        175700
#
# Disc length: 2538 seconds
#
# Revision: 0
# Processed by: cddbd v1.5.2PL0 Copyright (c) Steve Scherf et al.
# Submitted via: ExactAudioCopy v0.99pb4
#
DISCID=8609e80c
DTITLE=Lloyd Spiegel - Timber and Steel
DYEAR=2006
DGENRE=Blues
TTITLE0=If I Killed Ya When I Met Ya
TTITLE1=Goin' Home
TTITLE2=I Just Wanna Make Love To You
TTITLE3=Sweet Little Angel
TTITLE4=Statesboro Blues
TTITLE5=Long Way From Heaven
TTITLE6=King With No Crown
TTITLE7=You Don't Love Me
TTITLE8=Killing Floor
TTITLE9=Walk On
TTITLE10=Love And Money
TTITLE11=Bad Girl
EXTD=
EXTT0=
EXTT1=
EXTT2=
EXTT3=
EXTT4=
EXTT5=
EXTT6=
EXTT7=
EXTT8=
EXTT9=
EXTT10=
EXTT11=
PLAYORDER=
